# xmcd
#
# Track frame offsets:
#  150
#  25747
#  44215
#  63947
#  89777
#  107742
#  126235
#  150972
#  170685
#  188422
#
# Disc length: 2756 seconds
#
# Revision: 0
# Processed by: cddbd v1.4PL0 Copyright (c) Steve Scherf et al.
# Submitted via: AltoMP3_Maker 3.0
#
DISCID=820ac20a
DTITLE=Raja Mushtaq and Aruna - Love and Passion
DYEAR=1900
DGENRE=
TTITLE0=Tere Bina Zindagi Se
TTITLE1=Raat Kelie
TTITLE2=Hansini
TTITLE3=Goom Hai
TTITLE4=Tum Bin Jaon Kahan
TTITLE5=Kehna Hai
TTITLE6=Palkho Me
TTITLE7=Hansini
TTITLE8=Tum Bin Jaon Kahan
TTITLE9=Kehna Hai
EXTD=
EXTT0=
EXTT1=
EXTT2=
EXTT3=
EXTT4=
EXTT5=
EXTT6=
EXTT7=
EXTT8=
EXTT9=
PLAYORDER=
